<?xml version="1.0" encoding="UTF-8" standalone="no"?>
<!-- Created with Inkscape (http://www.inkscape.org/) -->

<svg
   xmlns:dc="http://purl.org/dc/elements/1.1/"
   xmlns:cc="http://creativecommons.org/ns#"
   xmlns:rdf="http://www.w3.org/1999/02/22-rdf-syntax-ns#"
   xmlns:svg="http://www.w3.org/2000/svg"
   xmlns="http://www.w3.org/2000/svg"
   xmlns:xlink="http://www.w3.org/1999/xlink"
   xmlns:sodipodi="http://sodipodi.sourceforge.net/DTD/sodipodi-0.dtd"
   xmlns:inkscape="http://www.inkscape.org/namespaces/inkscape"
   version="1.2"
   width="283.5"
   height="170.65625"
   viewBox="0 0 283.5 170.65625"
   id="svg2358"
   xml:space="preserve"
   style="overflow:visible"
   inkscape:version="0.92.2 (5c3e80d, 2017-08-06)"
   sodipodi:docname="iq_distribution.svg"><defs
     id="defs68"><marker
       inkscape:stockid="Arrow1Lend"
       orient="auto"
       refY="0.0"
       refX="0.0"
       id="marker5103"
       style="overflow:visible;"
       inkscape:isstock="true"><path
         id="path5101"
         d="M 0.0,0.0 L 5.0,-5.0 L -12.5,0.0 L 5.0,5.0 L 0.0,0.0 z "
         style="fill-rule:evenodd;stroke:#000000;stroke-width:1pt;stroke-opacity:1;fill:#000000;fill-opacity:1"
         transform="scale(0.8) rotate(180) translate(12.5,0)" /></marker><marker
       inkscape:stockid="TriangleOutL"
       orient="auto"
       refY="0.0"
       refX="0.0"
       id="TriangleOutL"
       style="overflow:visible"
       inkscape:isstock="true"><path
         id="path4948"
         d="M 5.77,0.0 L -2.88,5.0 L -2.88,-5.0 L 5.77,0.0 z "
         style="fill-rule:evenodd;stroke:#000000;stroke-width:1pt;stroke-opacity:1;fill:#000000;fill-opacity:1"
         transform="scale(0.8)" /></marker><marker
       inkscape:stockid="Arrow2Lend"
       orient="auto"
       refY="0.0"
       refX="0.0"
       id="marker5097"
       style="overflow:visible;"
       inkscape:isstock="true"><path
         id="path5095"
         style="fill-rule:evenodd;stroke-width:0.625;stroke-linejoin:round;stroke:#000000;stroke-opacity:1;fill:#000000;fill-opacity:1"
         d="M 8.7185878,4.0337352 L -2.2072895,0.016013256 L 8.7185884,-4.0017078 C 6.9730900,-1.6296469 6.9831476,1.6157441 8.7185878,4.0337352 z "
         transform="scale(1.1) rotate(180) translate(1,0)" /></marker><marker
       inkscape:stockid="StopL"
       orient="auto"
       refY="0.0"
       refX="0.0"
       id="StopL"
       style="overflow:visible"
       inkscape:isstock="true"><path
         id="path4975"
         d="M 0.0,5.65 L 0.0,-5.65"
         style="fill:none;fill-opacity:0.75;fill-rule:evenodd;stroke:#000000;stroke-width:1pt;stroke-opacity:1"
         transform="scale(0.8)" /></marker><marker
       inkscape:stockid="Torso"
       orient="auto"
       refY="0.0"
       refX="0.0"
       id="Torso"
       style="overflow:visible"
       inkscape:isstock="true"><g
         id="g5032"
         transform="scale(0.7)"
         style="stroke:#000000;stroke-opacity:1;fill:#000000;fill-opacity:1"><path
           id="path5018"
           d="M -4.7792281,-3.2395420 C -2.4288541,-2.8736027 0.52103922,-1.3019943 0.25792722,0.38794346 C -0.0051877922,2.0778819 -2.2126741,2.6176539 -4.5630471,2.2517169 C -6.9134221,1.8857769 -8.5210350,0.75201414 -8.2579220,-0.93792336 C -7.9948090,-2.6278615 -7.1296041,-3.6054813 -4.7792281,-3.2395420 z "
           style="fill:#000000;fill-opacity:1;fill-rule:evenodd;stroke:#000000;stroke-width:1.25;stroke-opacity:1" /><path
           id="path5020"
           d="M 4.4598789,0.088665736 C -2.5564571,-4.3783320 5.2248769,-3.9061806 -0.84829578,-8.7197331"
           style="fill:#000000;fill-opacity:1;fill-rule:evenodd;stroke:#000000;stroke-width:1pt;stroke-opacity:1" /><path
           id="path5022"
           d="M 4.9298719,0.057520736 C -1.3872731,1.7494689 1.8027579,5.4782079 -4.9448731,7.5462725"
           style="fill:#000000;fill-opacity:1;fill-rule:evenodd;stroke:#000000;stroke-width:1pt;stroke-opacity:1" /><rect
           id="rect5024"
           transform="matrix(0.527536,-0.849533,0.887668,0.460484,0,0)"
           y="-1.7408575"
           x="-10.391706"
           height="2.7608147"
           width="2.6366582"
           style="fill-rule:evenodd;stroke-width:1pt;stroke:#000000;stroke-opacity:1;fill:#000000;fill-opacity:1" /><rect
           id="rect5026"
           transform="matrix(0.671205,-0.741272,0.790802,0.612072,0,0)"
           y="-7.9629307"
           x="4.9587269"
           height="2.8614161"
           width="2.7327356"
           style="fill-rule:evenodd;stroke-width:1pt;stroke:#000000;stroke-opacity:1;fill:#000000;fill-opacity:1" /><path
           id="path5028"
           transform="matrix(0,-1.109517,1.109517,0,25.96648,19.71619)"
           d="M 16.779951 -28.685045 A 0.60731727 0.60731727 0 1 0 15.565317,-28.685045 A 0.60731727 0.60731727 0 1 0 16.779951 -28.685045 z"
           style="fill:#000000;fill-opacity:1;fill-rule:evenodd;stroke:#000000;stroke-width:1pt;stroke-opacity:1" /><path
           id="path5030"
           transform="matrix(0,-1.109517,1.109517,0,26.82450,16.99126)"
           d="M 16.779951 -28.685045 A 0.60731727 0.60731727 0 1 0 15.565317,-28.685045 A 0.60731727 0.60731727 0 1 0 16.779951 -28.685045 z"
           style="fill:#000000;fill-opacity:1;fill-rule:evenodd;stroke:#000000;stroke-width:1pt;stroke-opacity:1" /></g></marker><marker
       inkscape:stockid="Arrow1Lend"
       orient="auto"
       refY="0.0"
       refX="0.0"
       id="marker5082"
       style="overflow:visible;"
       inkscape:isstock="true"><path
         id="path5080"
         d="M 0.0,0.0 L 5.0,-5.0 L -12.5,0.0 L 5.0,5.0 L 0.0,0.0 z "
         style="fill-rule:evenodd;stroke:#000000;stroke-width:1pt;stroke-opacity:1;fill:#000000;fill-opacity:1"
         transform="scale(0.8) rotate(180) translate(12.5,0)" /></marker><marker
       inkscape:stockid="Arrow2Lend"
       orient="auto"
       refY="0.0"
       refX="0.0"
       id="Arrow2Lend"
       style="overflow:visible;"
       inkscape:isstock="true"><path
         id="path4827"
         style="fill-rule:evenodd;stroke-width:0.625;stroke-linejoin:round;stroke:#000000;stroke-opacity:1;fill:#000000;fill-opacity:1"
         d="M 8.7185878,4.0337352 L -2.2072895,0.016013256 L 8.7185884,-4.0017078 C 6.9730900,-1.6296469 6.9831476,1.6157441 8.7185878,4.0337352 z "
         transform="scale(1.1) rotate(180) translate(1,0)" /></marker><marker
       inkscape:stockid="Arrow1Lstart"
       orient="auto"
       refY="0.0"
       refX="0.0"
       id="marker5074"
       style="overflow:visible"
       inkscape:isstock="true"><path
         id="path5072"
         d="M 0.0,0.0 L 5.0,-5.0 L -12.5,0.0 L 5.0,5.0 L 0.0,0.0 z "
         style="fill-rule:evenodd;stroke:#000000;stroke-width:1pt;stroke-opacity:1;fill:#000000;fill-opacity:1"
         transform="scale(0.8) translate(12.5,0)" /></marker><marker
       inkscape:stockid="Arrow1Lend"
       orient="auto"
       refY="0.0"
       refX="0.0"
       id="Arrow1Lend"
       style="overflow:visible;"
       inkscape:isstock="true"><path
         id="path4809"
         d="M 0.0,0.0 L 5.0,-5.0 L -12.5,0.0 L 5.0,5.0 L 0.0,0.0 z "
         style="fill-rule:evenodd;stroke:#000000;stroke-width:1pt;stroke-opacity:1;fill:#000000;fill-opacity:1"
         transform="scale(0.8) rotate(180) translate(12.5,0)" /></marker><marker
       inkscape:stockid="Arrow1Lstart"
       orient="auto"
       refY="0.0"
       refX="0.0"
       id="Arrow1Lstart"
       style="overflow:visible"
       inkscape:isstock="true"><path
         id="path4806"
         d="M 0.0,0.0 L 5.0,-5.0 L -12.5,0.0 L 5.0,5.0 L 0.0,0.0 z "
         style="fill-rule:evenodd;stroke:#000000;stroke-width:1pt;stroke-opacity:1;fill:#000000;fill-opacity:1"
         transform="scale(0.8) translate(12.5,0)" /></marker><linearGradient
       inkscape:collect="always"
       id="linearGradient4738-6"><stop
         style="stop-color:#6cb7de;stop-opacity:1;"
         offset="0"
         id="stop4756" /><stop
         style="stop-color:#ff0000;stop-opacity:1"
         offset="1"
         id="stop4758" /></linearGradient><linearGradient
       inkscape:collect="always"
       xlink:href="#linearGradient4738-6"
       id="linearGradient4740"
       x1="207.44661"
       y1="139.22725"
       x2="240.80905"
       y2="139.22725"
       gradientUnits="userSpaceOnUse" /></defs><sodipodi:namedview
     pagecolor="#ffffff"
     bordercolor="#666666"
     borderopacity="1"
     objecttolerance="10"
     gridtolerance="10"
     guidetolerance="10"
     inkscape:pageopacity="0"
     inkscape:pageshadow="2"
     inkscape:window-width="1920"
     inkscape:window-height="1016"
     id="namedview66"
     showgrid="false"
     inkscape:zoom="1.9608729"
     inkscape:cx="118.93281"
     inkscape:cy="117.1144"
     inkscape:window-x="0"
     inkscape:window-y="27"
     inkscape:window-maximized="1"
     inkscape:current-layer="svg2358" /><metadata
     id="metadata2503"><rdf:RDF><cc:Work
         rdf:about=""><dc:format>image/svg+xml</dc:format><dc:type
           rdf:resource="http://purl.org/dc/dcmitype/StillImage" /></cc:Work></rdf:RDF></metadata><font
     horiz-origin-x="0"
     horiz-origin-y="0"
     horiz-adv-x="2048"
     vert-origin-x="45"
     vert-origin-y="90"
     vert-adv-y="90"
     id="font2360" /><text
     x="34.749882"
     y="164.96313"
     id="text3157"
     xml:space="preserve"
     style="font-style:normal;font-variant:normal;font-weight:normal;font-stretch:normal;font-size:10px;line-height:0%;font-family:Arial;-inkscape-font-specification:Arial;letter-spacing:0px;word-spacing:0px;fill:#000000;fill-opacity:1;stroke:none"><tspan
       x="34.749882"
       y="164.96313"
       id="tspan3159">55</tspan></text>
<text
     x="68.223892"
     y="165.09009"
     id="text3161"
     xml:space="preserve"
     style="font-style:normal;font-variant:normal;font-weight:normal;font-stretch:normal;font-size:10px;line-height:0%;font-family:Arial;-inkscape-font-specification:Arial;letter-spacing:0px;word-spacing:0px;fill:#000000;fill-opacity:1;stroke:none"><tspan
       x="68.223892"
       y="165.09009"
       id="tspan3163">70</tspan></text>
<text
     x="101.68326"
     y="165.09009"
     id="text3165"
     xml:space="preserve"
     style="font-style:normal;font-variant:normal;font-weight:normal;font-stretch:normal;font-size:10px;line-height:0%;font-family:Arial;-inkscape-font-specification:Arial;letter-spacing:0px;word-spacing:0px;fill:#000000;fill-opacity:1;stroke:none"><tspan
       x="101.68326"
       y="165.09009"
       id="tspan3167">85</tspan></text>
<text
     x="132.06157"
     y="165.09009"
     id="text3169"
     xml:space="preserve"
     style="font-style:normal;font-variant:normal;font-weight:normal;font-stretch:normal;font-size:10px;line-height:0%;font-family:Arial;-inkscape-font-specification:Arial;letter-spacing:0px;word-spacing:0px;fill:#000000;fill-opacity:1;stroke:none"><tspan
       x="132.06157"
       y="165.09009"
       id="tspan3171">100</tspan></text>
<text
     x="165.48676"
     y="165.09009"
     id="text3173"
     xml:space="preserve"
     style="font-style:normal;font-variant:normal;font-weight:normal;font-stretch:normal;font-size:10px;line-height:0%;font-family:Arial;-inkscape-font-specification:Arial;letter-spacing:0px;word-spacing:0px;fill:#000000;fill-opacity:1;stroke:none"><tspan
       x="165.48676"
       y="165.09009"
       id="tspan3175">115</tspan></text>
<text
     x="198.99007"
     y="165.09009"
     id="text3177"
     xml:space="preserve"
     style="font-style:normal;font-variant:normal;font-weight:normal;font-stretch:normal;font-size:10px;line-height:0%;font-family:Arial;-inkscape-font-specification:Arial;letter-spacing:0px;word-spacing:0px;fill:#000000;fill-opacity:1;stroke:none"><tspan
       x="198.99007"
       y="165.09009"
       id="tspan3179">130</tspan></text>
<text
     x="232.41525"
     y="165.09009"
     id="text3181"
     xml:space="preserve"
     style="font-style:normal;font-variant:normal;font-weight:normal;font-stretch:normal;font-size:10px;line-height:0%;font-family:Arial;-inkscape-font-specification:Arial;letter-spacing:0px;word-spacing:0px;fill:#000000;fill-opacity:1;stroke:none"><tspan
       x="232.41525"
       y="165.09009"
       id="tspan3183">145</tspan></text>
<path
     d="m 106.72072,63.30425 c -3.00709,7.859 -6.03885,15.692 -9.20631,23.42 -3.0724,7.497 -6.38426,14.781 -9.9559,21.806 -3.47151,6.826 -7.41759,13.536 -11.927498,18.996 -0.539157,0.653 -1.084845,1.292 -1.634887,1.922 l 0,19.508 33.362445,0 0,-87.317 c -0.21262,0.555 -0.42596,1.11 -0.63785,1.665 z"
     id="path2390"
     style="fill:#6cb7de;fill-opacity:1" /><path
     d="m 60.290791,141.11725 c -5.699973,3.18 -11.648118,4.927 -17.702934,5.979 -0.650181,0.113 -1.301814,0.215 -1.954173,0.313 l 0,1.547 33.363167,0 0,-19.508 c -4.182641,4.788 -8.686745,8.868 -13.70606,11.669 z"
     id="path2392"
     style="fill:#6cb7de;fill-opacity:1" /><path
     d="m 25.3341,148.63625 c -6.019259,0.218 -12.041421,0.284 -18.063582,0.319 l 33.362441,0 0,-1.547 c -5.079544,0.755 -10.196821,1.043 -15.298859,1.228 z"
     id="path2394"
     style="fill:#6cb4de;fill-opacity:1" /><path
     d="m 140.43583,4.98725 c -2.97734,0.322 -5.82189,1.843 -8.17879,4.541 -2.42295,2.773 -4.58538,5.849 -6.54899,9.298 -3.79079,6.657 -7.02791,14.041 -10.02339,21.477 -2.84382,7.058 -5.5904,14.191 -8.32537,21.336 l 0,87.317 33.36244,0 0,-143.986 c -0.0958,0.005 -0.19084,0.006 -0.2859,0.017 z"
     id="path2396"
     style="fill:#6cb7de;fill-opacity:1" /><path
     d="m 165.5324,39.76025 c -3.12247,-7.503 -6.31823,-15.093 -10.28608,-21.75 -1.92587,-3.234 -3.99832,-6.552 -6.48948,-8.912 -2.35836,-2.234 -5.1209,-4.295 -8.03583,-4.127 l 0,143.985 33.36244,0 0,-87.32 c -2.80101,-7.328 -5.56355,-14.699 -8.55105,-21.876 z"
     id="path2398"
     style="fill:#6cb7de;fill-opacity:1" /><path
     d="m 237.66264,146.88925 c -5.77762,-1.005 -11.67279,-2.795 -17.0455,-6.08 -4.74647,-2.901 -9.17728,-6.651 -13.17053,-11.311 l 0,19.458 33.36244,0 0,-1.594 c -1.04928,-0.147 -2.09857,-0.29 -3.14641,-0.473 z"
     id="path2400"
     style="fill:url(#linearGradient4740);fill-opacity:1;fill-rule:evenodd" /><path
     d="m 205.37489,126.96225 c -4.58756,-5.967 -8.58008,-12.711 -12.22864,-19.884 -3.55713,-6.994 -6.76087,-14.354 -9.81876,-21.817 -3.15149,-7.69 -6.14117,-15.513 -9.13229,-23.333 -0.0377,-0.097 -0.0747,-0.195 -0.11175,-0.292 l 0,87.32 33.36316,0 0,-19.457 c -0.70388,-0.821 -1.3976,-1.659 -2.07172,-2.537 z"
     id="path2402"
     style="fill:#6cb7de;fill-opacity:1" /><path
     d="m 273.27096,148.95125 c -5.91113,-0.035 -11.82662,-0.092 -17.73486,-0.337 -4.92135,-0.204 -9.83109,-0.563 -14.72777,-1.252 l 0,1.594 33.36244,0 c -0.30042,-0.002 -0.59939,-0.004 -0.89981,-0.005 z"
     id="path2404"
     style="fill:#ff0000;fill-opacity:1" /><line
     stroke-miterlimit="10"
     x1="40.632961"
     y1="141.65625"
     x2="40.632961"
     y2="149.01025"
     id="line2407"
     style="fill:none;stroke:#ffffff;stroke-width:0.85185039;stroke-linejoin:round;stroke-miterlimit:10" /><line
     stroke-miterlimit="10"
     x1="73.996124"
     y1="119.15625"
     x2="73.996124"
     y2="149.01025"
     id="line2409"
     style="fill:none;stroke:#ffffff;stroke-width:0.85185039;stroke-linejoin:round;stroke-miterlimit:10" /><line
     stroke-miterlimit="10"
     x1="107.35857"
     y1="53.15625"
     x2="107.35857"
     y2="149.01025"
     id="line2411"
     style="fill:none;stroke:#ffffff;stroke-width:0.85185039;stroke-linejoin:round;stroke-miterlimit:10" /><line
     stroke-miterlimit="10"
     x1="140.72101"
     y1="4.3702507"
     x2="140.72101"
     y2="149.01025"
     id="line2413"
     style="fill:none;stroke:#ffffff;stroke-width:0.85185039;stroke-linejoin:round;stroke-miterlimit:10" /><line
     stroke-miterlimit="10"
     x1="174.08344"
     y1="53.15625"
     x2="174.08344"
     y2="149.01025"
     id="line2415"
     style="fill:none;stroke:#ffffff;stroke-width:0.85185039;stroke-linejoin:round;stroke-miterlimit:10" /><line
     stroke-miterlimit="10"
     x1="207.44589"
     y1="119.15625"
     x2="207.44589"
     y2="149.01025"
     id="line2417"
     style="fill:none;stroke:#ffffff;stroke-width:0.85185039;stroke-linejoin:round;stroke-miterlimit:10" /><line
     stroke-miterlimit="10"
     x1="240.80835"
     y1="141.65625"
     x2="240.80835"
     y2="149.01025"
     id="line2419"
     style="fill:none;stroke:#ffffff;stroke-width:0.85185039;stroke-linejoin:round;stroke-miterlimit:10" /><line
     style="fill:none;stroke:#000000;stroke-width:0.63888776;stroke-linecap:round;stroke-linejoin:round;stroke-miterlimit:10"
     id="line2443"
     y2="149.00626"
     x2="274.11636"
     y1="149.00626"
     x1="7.16675"
     stroke-miterlimit="10" /><path
     d="m 7.270518,148.95625 c 6.022161,-0.035 12.044323,-0.102 18.063582,-0.319 5.755848,-0.209 11.533466,-0.546 17.253031,-1.54 6.055542,-1.053 12.002961,-2.8 17.702935,-5.979 5.679655,-3.169 10.701146,-7.974 15.34022,-13.591 4.509914,-5.46 8.455984,-12.17 11.927494,-18.996 3.57164,-7.024 6.88351,-14.309 9.9559,-21.806 3.16746,-7.728 6.19922,-15.562 9.20631,-23.42 2.94687,-7.702 5.89881,-15.395 8.96395,-23.001 2.99548,-7.436 6.23332,-14.82 10.02339,-21.477 1.9636,-3.449 4.12676,-6.525 6.54898,-9.298 2.35618,-2.698 5.20145,-4.219 8.17879,-4.541 3.01943,-0.326 5.88574,1.804 8.32174,4.111 2.49188,2.36 4.56361,5.678 6.48948,8.912 3.96785,6.658 7.16361,14.247 10.28608,21.75 3.02595,7.272 5.82261,14.744 8.6628,22.168 2.99112,7.82 5.9808,15.642 9.13229,23.333 3.05789,7.463 6.26163,14.823 9.81876,21.817 3.64783,7.173 7.64036,13.917 12.22863,19.884 4.50774,5.863 9.65985,10.436 15.24226,13.848 5.37271,3.285 11.26788,5.075 17.0455,6.08 5.93726,1.032 11.89774,1.477 17.87346,1.725 5.90896,0.245 11.82373,0.302 17.73486,0.337 0.30042,0.001 0.59939,0.003 0.89981,0.005"
     id="path2445"
     style="fill:none;stroke:#000000;stroke-width:0.63888776;stroke-linecap:round;stroke-linejoin:round;stroke-miterlimit:10" /><line
     style="fill:none;stroke:#000000;stroke-width:0.63888776;stroke-linejoin:round;stroke-miterlimit:10"
     id="line2447"
     y2="148.90625"
     x2="40.632961"
     y1="154.71625"
     x1="40.632961"
     stroke-miterlimit="10" /><line
     style="fill:none;stroke:#000000;stroke-width:0.63888776;stroke-linejoin:round;stroke-miterlimit:10"
     id="line2449"
     y2="148.90625"
     x2="73.996124"
     y1="154.71625"
     x1="73.996124"
     stroke-miterlimit="10" /><line
     style="fill:none;stroke:#000000;stroke-width:0.63888776;stroke-linejoin:round;stroke-miterlimit:10"
     id="line2451"
     y2="148.90625"
     x2="107.35857"
     y1="154.71625"
     x1="107.35857"
     stroke-miterlimit="10" /><line
     style="fill:none;stroke:#000000;stroke-width:0.63888776;stroke-linejoin:round;stroke-miterlimit:10"
     id="line2453"
     y2="148.90625"
     x2="140.72101"
     y1="154.71625"
     x1="140.72101"
     stroke-miterlimit="10" /><line
     style="fill:none;stroke:#000000;stroke-width:0.63888776;stroke-linejoin:round;stroke-miterlimit:10"
     id="line2455"
     y2="148.90625"
     x2="174.08344"
     y1="154.71625"
     x1="174.08344"
     stroke-miterlimit="10" /><line
     style="fill:none;stroke:#000000;stroke-width:0.63888776;stroke-linejoin:round;stroke-miterlimit:10"
     id="line2457"
     y2="148.90625"
     x2="207.44589"
     y1="154.71625"
     x1="207.44589"
     stroke-miterlimit="10" /><line
     style="fill:none;stroke:#000000;stroke-width:0.63888776;stroke-linejoin:round;stroke-miterlimit:10"
     id="line2459"
     y2="148.90625"
     x2="240.80835"
     y1="154.71625"
     x1="240.80835"
     stroke-miterlimit="10" /><g
     transform="translate(-21.28125,-15.84375)"
     id="Layer_2" /><text
     x="111.60506"
     y="113.32977"
     id="text3052"
     xml:space="preserve"
     style="font-style:normal;font-variant:normal;font-weight:normal;font-stretch:normal;font-size:10px;line-height:0%;font-family:Arial;-inkscape-font-specification:Arial;letter-spacing:0px;word-spacing:0px;fill:#000000;fill-opacity:1;stroke:none"><tspan
       x="111.60506"
       y="113.32977"
       id="tspan3054"
       style="font-size:10px">34.1%</tspan></text>
<text
     x="142.82892"
     y="113.34933"
     id="text3052-1"
     xml:space="preserve"
     style="font-style:normal;font-variant:normal;font-weight:normal;font-stretch:normal;font-size:10px;line-height:0%;font-family:Arial;-inkscape-font-specification:Arial;letter-spacing:0px;word-spacing:0px;fill:#000000;fill-opacity:1;stroke:none"><tspan
       x="142.82892"
       y="113.34933"
       id="tspan3054-7"
       style="font-size:10px">34.1%</tspan></text>
<text
     x="76.372208"
     y="140.14154"
     id="text3077"
     xml:space="preserve"
     style="font-style:normal;font-variant:normal;font-weight:normal;font-stretch:normal;font-size:48px;line-height:0%;font-family:Arial;-inkscape-font-specification:Arial;letter-spacing:0px;word-spacing:0px;fill:#000000;fill-opacity:1;stroke:none"><tspan
       x="76.372208"
       y="140.14154"
       id="tspan3079"
       style="font-size:11px">1<tspan
   id="tspan3081"
   style="font-size:10px">3.6%</tspan></tspan></text>
<text
     x="174.73323"
     y="140.3839"
     id="text3077-4"
     xml:space="preserve"
     style="font-style:normal;font-variant:normal;font-weight:normal;font-stretch:normal;font-size:48px;line-height:0%;font-family:Arial;-inkscape-font-specification:Arial;letter-spacing:0px;word-spacing:0px;fill:#000000;fill-opacity:1;stroke:none"><tspan
       x="174.73323"
       y="140.3839"
       id="tspan3079-0"
       style="font-size:11px">1<tspan
   id="tspan3081-9"
   style="font-size:10px">3.6%</tspan></tspan></text>
<text
     x="45.518997"
     y="133.5498"
     id="text3107"
     xml:space="preserve"
     style="font-style:normal;font-variant:normal;font-weight:normal;font-stretch:normal;font-size:10px;line-height:0%;font-family:Arial;-inkscape-font-specification:Arial;letter-spacing:0px;word-spacing:0px;fill:#000000;fill-opacity:1;stroke:none"><tspan
       x="45.518997"
       y="133.5498"
       id="tspan3109">2.1%</tspan></text>
<text
     x="14.688377"
     y="143.82011"
     id="text3111"
     xml:space="preserve"
     style="font-style:normal;font-variant:normal;font-weight:normal;font-stretch:normal;font-size:10px;line-height:0%;font-family:Arial;-inkscape-font-specification:Arial;letter-spacing:0px;word-spacing:0px;fill:#000000;fill-opacity:1;stroke:none"><tspan
       x="14.688377"
       y="143.82011"
       id="tspan3113">0.1%</tspan></text>
<text
     x="215.90523"
     y="133.5498"
     id="text3107-4"
     xml:space="preserve"
     style="font-style:normal;font-variant:normal;font-weight:normal;font-stretch:normal;font-size:10px;line-height:0%;font-family:Arial;-inkscape-font-specification:Arial;letter-spacing:0px;word-spacing:0px;fill:#000000;fill-opacity:1;stroke:none"><tspan
       x="215.90523"
       y="133.5498"
       id="tspan3109-8">2.1%</tspan></text>
<text
     x="244.6969"
     y="143.82011"
     id="text3111-8"
     xml:space="preserve"
     style="font-style:normal;font-variant:normal;font-weight:normal;font-stretch:normal;font-size:10px;line-height:0%;font-family:Arial;-inkscape-font-specification:Arial;letter-spacing:0px;word-spacing:0px;fill:#000000;fill-opacity:1;stroke:none;"><tspan
       x="244.6969"
       y="143.82011"
       id="tspan3113-2"
       style="fill:#000000;fill-opacity:1;">0.1%</tspan></text>
<text
     xml:space="preserve"
     style="font-size:24px;line-height:1.25;font-family:'DejaVu Sans';-inkscape-font-specification:'DejaVu Sans';letter-spacing:0px;word-spacing:0px"
     x="236.96388"
     y="82.393997"
     id="text4763"><tspan
       sodipodi:role="line"
       x="236.96388"
       y="82.393997"
       style="font-size:10.66666698px;line-height:0;text-align:center;letter-spacing:0px;text-anchor:middle"
       id="tspan4773"> are only so</tspan></text>
<text
     xml:space="preserve"
     style="font-size:24px;line-height:1.25;font-family:'DejaVu Sans';-inkscape-font-specification:'DejaVu Sans';letter-spacing:0px;word-spacing:0px"
     x="193.02638"
     y="72.070976"
     id="text4793"><tspan
       sodipodi:role="line"
       id="tspan4791"
       x="193.02638"
       y="72.070976"
       style="font-size:10.66666698px">Thank god there</tspan></text>
<text
     xml:space="preserve"
     style="font-size:24px;line-height:1.25;font-family:'DejaVu Sans';-inkscape-font-specification:'DejaVu Sans';letter-spacing:0px;word-spacing:0px"
     x="196.08888"
     y="92.71701"
     id="text4802"><tspan
       sodipodi:role="line"
       id="tspan4800"
       x="196.08888"
       y="92.71701"
       style="font-size:10.66666698px">much geniuses</tspan></text>
<path
     style="fill:none;stroke:#000000;stroke-width:1;stroke-linecap:butt;stroke-linejoin:miter;stroke-miterlimit:4;stroke-dasharray:none;stroke-opacity:1;marker-end:url(#marker5103)"
     d="m 242.74904,96.199613 8.14151,35.592767"
     id="path5078"
     inkscape:connector-curvature="0"
     sodipodi:nodetypes="cc" /></svg>